<svg xmlns="http://www.w3.org/2000/svg" xmlns:oryx="http://oryx-editor.org" id="_0AB5C13D-07A7-4686-B233-3DC6B1BDA369" width="773" height="263" xmlns:xlink="http://www.w3.org/1999/xlink" xmlns:svg="http://www.w3.org/2000/svg"><defs><marker id="_1B27C164-94AB-49B5-9C90-2C99BF80BD23start" refX="1" refY="5" markerUnits="userSpaceOnUse" markerWidth="17" markerHeight="11" orient="auto" fill="#000000" stroke="#000000"> 	  		<path id="_1B27C164-94AB-49B5-9C90-2C99BF80BD23conditional" d="M 0 5 L 8 0 L 16 5 L 8 10 L 0 5" fill="white" stroke="#000000" stroke-width="1" display="none"/> 			<path id="_1B27C164-94AB-49B5-9C90-2C99BF80BD23default" d="M 5 0 L 11 10" fill="white" stroke="#000000" stroke-width="1" display="none"/> 	  	</marker><marker id="_1B27C164-94AB-49B5-9C90-2C99BF80BD23end" refX="15" refY="6" markerUnits="userSpaceOnUse" markerWidth="15" markerHeight="12" orient="auto" fill="#000000" stroke="#000000"> 	  		<path id="_1B27C164-94AB-49B5-9C90-2C99BF80BD23frame2" d="M 0 1 L 15 6 L 0 11z" fill="#000000" stroke="#000000" stroke-linejoin="round" stroke-width="2"/> 	  	</marker><marker id="_6B1E30B0-B06E-4EDA-ADDD-4CEEBBECB292start" refX="1" refY="5" markerUnits="userSpaceOnUse" markerWidth="17" markerHeight="11" orient="auto" fill="#000000" stroke="#000000"> 	  		<path id="_6B1E30B0-B06E-4EDA-ADDD-4CEEBBECB292conditional" d="M 0 5 L 8 0 L 16 5 L 8 10 L 0 5" fill="white" stroke="#000000" stroke-width="1" display="none"/> 			<path id="_6B1E30B0-B06E-4EDA-ADDD-4CEEBBECB292default" d="M 5 0 L 11 10" fill="white" stroke="#000000" stroke-width="1" display="none"/> 	  	</marker><marker id="_6B1E30B0-B06E-4EDA-ADDD-4CEEBBECB292end" refX="15" refY="6" markerUnits="userSpaceOnUse" markerWidth="15" markerHeight="12" orient="auto" fill="#000000" stroke="#000000"> 	  		<path id="_6B1E30B0-B06E-4EDA-ADDD-4CEEBBECB292frame2" d="M 0 1 L 15 6 L 0 11z" fill="#000000" stroke="#000000" stroke-linejoin="round" stroke-width="2"/> 	  	</marker><marker id="_B5DED41D-8957-4153-AA85-EC2F84B5BD4Bstart" refX="1" refY="5" markerUnits="userSpaceOnUse" markerWidth="17" markerHeight="11" orient="auto" fill="#000000" stroke="#000000"> 	  		<path id="_B5DED41D-8957-4153-AA85-EC2F84B5BD4Bconditional" d="M 0 5 L 8 0 L 16 5 L 8 10 L 0 5" fill="white" stroke="#000000" stroke-width="1" display="none"/> 			<path id="_B5DED41D-8957-4153-AA85-EC2F84B5BD4Bdefault" d="M 5 0 L 11 10" fill="white" stroke="#000000" stroke-width="1" display="none"/> 	  	</marker><marker id="_B5DED41D-8957-4153-AA85-EC2F84B5BD4Bend" refX="15" refY="6" markerUnits="userSpaceOnUse" markerWidth="15" markerHeight="12" orient="auto" fill="#000000" stroke="#000000"> 	  		<path id="_B5DED41D-8957-4153-AA85-EC2F84B5BD4Bframe2" d="M 0 1 L 15 6 L 0 11z" fill="#000000" stroke="#000000" stroke-linejoin="round" stroke-width="2"/> 	  	</marker><marker id="_0FF3FE59-84BF-442B-9BA3-E708D95046BFstart" refX="1" refY="5" markerUnits="userSpaceOnUse" markerWidth="17" markerHeight="11" orient="auto" fill="#000000" stroke="#000000"> 	  		<path id="_0FF3FE59-84BF-442B-9BA3-E708D95046BFconditional" d="M 0 5 L 8 0 L 16 5 L 8 10 L 0 5" fill="white" stroke="#000000" stroke-width="1" display="none"/> 			<path id="_0FF3FE59-84BF-442B-9BA3-E708D95046BFdefault" d="M 5 0 L 11 10" fill="white" stroke="#000000" stroke-width="1" display="none"/> 	  	</marker><marker id="_0FF3FE59-84BF-442B-9BA3-E708D95046BFend" refX="15" refY="6" markerUnits="userSpaceOnUse" markerWidth="15" markerHeight="12" orient="auto" fill="#000000" stroke="#000000"> 	  		<path id="_0FF3FE59-84BF-442B-9BA3-E708D95046BFframe2" d="M 0 1 L 15 6 L 0 11z" fill="#000000" stroke="#000000" stroke-linejoin="round" stroke-width="2"/> 	  	</marker></defs><g stroke="none" font-family="Verdana, sans-serif" font-size-adjust="none" font-style="normal" font-variant="normal" font-weight="normal" line-heigth="normal" font-size="12"><g class="stencils" transform="translate(15, 14)"><g class="me"/><g class="children"><g id="_C78742BD-3422-4CC3-B735-BF5A904F5DF1" bpmn2nodeid="processStartEvent"><g class="stencils" transform="translate(120, 165)"><g class="me"><g pointer-events="fill" id="_C78742BD-3422-4CC3-B735-BF5A904F5DF1">        <defs id="_C78742BD-3422-4CC3-B735-BF5A904F5DF1__C78742BD-3422-4CC3-B735-BF5A904F5DF1_5"> 		<radialGradient id="_C78742BD-3422-4CC3-B735-BF5A904F5DF1background" cx="10%" cy="10%" r="100%" fx="10%" fy="10%"> 			<stop offset="0%" stop-color="#ffffff" stop-opacity="1" id="_C78742BD-3422-4CC3-B735-BF5A904F5DF1__C78742BD-3422-4CC3-B735-BF5A904F5DF1_6"/> 			<stop id="_C78742BD-3422-4CC3-B735-BF5A904F5DF1fill_el" offset="100%" stop-color="#9acd32" stop-opacity="1"/> 		</radialGradient> 	</defs> 	     <circle id="_C78742BD-3422-4CC3-B735-BF5A904F5DF1bg_frame" cx="15" cy="15" r="15" stroke="#000000" fill="url(#_C78742BD-3422-4CC3-B735-BF5A904F5DF1background) white" stroke-width="1" style="stroke-dasharray: 5.5, 3"/>      <circle id="_C78742BD-3422-4CC3-B735-BF5A904F5DF1frame" cx="15" cy="15" r="15" stroke="#000000" fill="none" stroke-width="1" display="inherit"/>  	<text font-size="11" id="_C78742BD-3422-4CC3-B735-BF5A904F5DF1text_name" x="15" y="32" oryx:align="top center" stroke="black" stroke-width="0pt" letter-spacing="-0.01px" fill="#000000" text-anchor="middle" transform="rotate(0 15 32)" visibility="inherit" oryx:fontSize="11"/>   </g></g><g class="children" style="overflow:hidden"/><g class="edge"/></g><g class="controls"><g class="dockers"/><g class="magnets" transform="translate(120, 165)"><g pointer-events="all" display="none" transform="translate(7, 7)"><circle cx="8" cy="8" r="4" stroke="none" fill="red" fill-opacity="0.3"/></g></g></g></g><g id="_C3580F26-A85B-4C6A-97AD-D361FEECBB61" bpmn2nodeid="_97DC869B-DE95-472A-A986-66F4ADA2A931"><g class="stencils" transform="translate(195, 140)"><g class="me"><g pointer-events="fill" oryx:minimumSize="50 40" id="_C3580F26-A85B-4C6A-97AD-D361FEECBB61">   	<defs id="_C3580F26-A85B-4C6A-97AD-D361FEECBB61__C3580F26-A85B-4C6A-97AD-D361FEECBB61_17"> 		<radialGradient id="_C3580F26-A85B-4C6A-97AD-D361FEECBB61background" cx="10%" cy="10%" r="100%" fx="10%" fy="10%"> 			<stop offset="0%" stop-color="#ffffff" stop-opacity="1" id="_C3580F26-A85B-4C6A-97AD-D361FEECBB61__C3580F26-A85B-4C6A-97AD-D361FEECBB61_18"/> 			<stop id="_C3580F26-A85B-4C6A-97AD-D361FEECBB61fill_el" offset="100%" stop-color="#fafad2" stop-opacity="1"/> 		</radialGradient> 		<radialGradient id="_C3580F26-A85B-4C6A-97AD-D361FEECBB61borderbackground" cx="10%" cy="10%" r="100%" fx="10%" fy="10%"> 			<stop offset="0%" stop-color="#ffffff" stop-opacity="1" id="_C3580F26-A85B-4C6A-97AD-D361FEECBB61__C3580F26-A85B-4C6A-97AD-D361FEECBB61_19"/> 			<stop id="_C3580F26-A85B-4C6A-97AD-D361FEECBB61fill_border" offset="100%" stop-color="#000000" stop-opacity="1" stroke="#000000"/> 		</radialGradient> 	</defs> 	 	<rect id="_C3580F26-A85B-4C6A-97AD-D361FEECBB61text_frame" oryx:anchors="bottom top right left" x="1" y="1" width="94" height="79" rx="10" ry="10" stroke="none" stroke-width="0" fill="none"/> 	<rect id="_C3580F26-A85B-4C6A-97AD-D361FEECBB61bg_frame" oryx:resize="vertical horizontal" x="0" y="0" width="100" height="80" rx="10" ry="10" stroke="#000000" stroke-width="1" fill="url(#_C3580F26-A85B-4C6A-97AD-D361FEECBB61background) #ffffcc"/> 		<text font-size="12" id="_C3580F26-A85B-4C6A-97AD-D361FEECBB61text_name" x="50" y="40" oryx:align="middle center" oryx:fittoelem="text_frame" stroke="black" text-anchor="middle" stroke-width="0pt" letter-spacing="-0.01px" fill="#000000" transform="rotate(0 50 40)" visibility="inherit" oryx:fontSize="12"><tspan x="50" y="40" dy="-1">LocalDateField</tspan><tspan x="50" y="40" dy="11">Task</tspan></text>     <g id="_C3580F26-A85B-4C6A-97AD-D361FEECBB61manualTask" transform="scale(0.7,0.7) translate(8,8)" display="none">     	<path oryx:anchors="top left" id="_C3580F26-A85B-4C6A-97AD-D361FEECBB61frame" style="opacity:1;fill:none;fill-opacity:1;stroke-width:1" d="M0.5,3.751l4.083-3.25c0,0,11.166,0.083,12.083,0.083s-2.417,2.917-1.5,2.917     s11.667,0,12.584,0c1.166,1.708-0.168,3.167-0.834,3.667s0.875,1.917-1,4.417c-0.75,0.25,0.75,1.875-1.333,3.333     c-1.167,0.583,0.583,1.542-1.25,2.833c-1.167,0-20.833,0.083-20.833,0.083l-2-1.333V3.751z" stroke="#000000"/> 		<path id="_C3580F26-A85B-4C6A-97AD-D361FEECBB61frame2" oryx:anchors="top left" style="opacity:1;fill:none;stroke-width:2" d="M 13.5 7 L 27 7" stroke="#000000"/> 		<path id="_C3580F26-A85B-4C6A-97AD-D361FEECBB61frame3" oryx:anchors="top left" style="opacity:1;fill:none;stroke-width:2" d="M 13.5 11 L 26 11" stroke="#000000"/> 		<path id="_C3580F26-A85B-4C6A-97AD-D361FEECBB61frame4" oryx:anchors="top left" style="opacity:1;fill:none;stroke-width:1.5" d="M 14 14.5 L 25 14.5" stroke="#000000"/> 		<path id="_C3580F26-A85B-4C6A-97AD-D361FEECBB61frame5" oryx:anchors="top left" style="opacity:1;fill:none;stroke-width:1.5" d="M 8.2 3.1 L 15 3.1" stroke="#000000"/> 	</g> 	 	<g id="_C3580F26-A85B-4C6A-97AD-D361FEECBB61businessRuleTask" transform="scale(0.7,0.7) translate(8,8)" display="none"> 		<rect id="_C3580F26-A85B-4C6A-97AD-D361FEECBB61frame6" oryx:anchors="top left" x="0" y="0" width="22" height="4" style="opacity:1;fill:#B3B1B3;fill-opacity:1;" stroke="#000000"/> 		<rect id="_C3580F26-A85B-4C6A-97AD-D361FEECBB61frame7" oryx:anchors="top left" x="0" y="4" style="opacity:1;fill:none;" width="22" height="12" stroke="#000000"/> 		<path id="_C3580F26-A85B-4C6A-97AD-D361FEECBB61frame8" oryx:anchors="top left" style="opacity:1;fill:none;" d="M 0 10 L 22 10" stroke="#000000"/> 		<path id="_C3580F26-A85B-4C6A-97AD-D361FEECBB61frame9" oryx:anchors="top left" style="opacity:1; fill:none;" d="M 7 4 L 7 16" stroke="#000000"/> 	</g> 	 	<g id="_C3580F26-A85B-4C6A-97AD-D361FEECBB61scriptTask" transform="scale(0.7,0.7) translate(8,8)" display="none"> 		<path oryx:anchors="top left" id="_C3580F26-A85B-4C6A-97AD-D361FEECBB61frame10" style="opacity:1;fill:none;" stroke="#000000" d="M6.402,0.5h14.5c0,0-5.833,2.833-5.833,5.583s4.417,6,4.417,9.167    s-4.167,5.083-4.167,5.083H0.235c0,0,5-2.667,5-5s-4.583-6.75-4.583-9.25S6.402,0.5,6.402,0.5z"/> 		<path oryx:anchors="top left" id="_C3580F26-A85B-4C6A-97AD-D361FEECBB61frame11" style="opacity:1;fill:none;stroke-width:1.5" d="M 3.5 4.5 L 13.5 4.5" stroke="#000000"/> 		<path oryx:anchors="top left" id="_C3580F26-A85B-4C6A-97AD-D361FEECBB61frame12" style="opacity:1;fill:none;stroke-width:1.5" d="M 3.8 8.5 L 13.8 8.5" stroke="#000000"/> 		<path oryx:anchors="top left" id="_C3580F26-A85B-4C6A-97AD-D361FEECBB61frame13" style="opacity:1;fill:none;stroke-width:1.5" d="M 6.3 12.5 L 16.3 12.5" stroke="#000000"/> 		<path oryx:anchors="top left" id="_C3580F26-A85B-4C6A-97AD-D361FEECBB61frame14" style="opacity:1;fill:none;stroke-width:1.5" d="M 6.5 16.5 L 16.5 16.5" stroke="#000000"/> 	</g> 	 	<g id="_C3580F26-A85B-4C6A-97AD-D361FEECBB61userTask" transform="scale(0.7,0.7) translate(8,8)" display="inherit"> 		<path id="_C3580F26-A85B-4C6A-97AD-D361FEECBB61frame15" oryx:anchors="top left" style="opacity:1;fill:#F4F6F7" stroke="#000000" d="M0.585,24.167h24.083v-7.833c0,0-2.333-3.917-7.083-5.167h-9.25    c-4.417,1.333-7.833,5.75-7.833,5.75L0.585,24.167z"/> 		<path id="_C3580F26-A85B-4C6A-97AD-D361FEECBB61frame16" oryx:anchors="top left" style="opacity:1;fill:none" d="M 6 20 L 6 24" stroke="#000000"/> 		<path id="_C3580F26-A85B-4C6A-97AD-D361FEECBB61frame17" oryx:anchors="top left" style="opacity:1;fill:none" d="M 20 20 L 20 24" stroke="#000000"/> 		<circle id="_C3580F26-A85B-4C6A-97AD-D361FEECBB61frame18" oryx:anchors="top left" fill="black" cx="13.002" cy="5.916" r="5.417" stroke="#000000"/> 		<path id="_C3580F26-A85B-4C6A-97AD-D361FEECBB61frame19" oryx:anchors="top left" style="opacity:1;fill:#F0EFF0;" stroke="#000000" d="M8.043,7.083c0,0,2.814-2.426,5.376-1.807s4.624-0.693,4.624-0.693    c0.25,1.688,0.042,3.75-1.458,5.584c0,0,1.083,0.75,1.083,1.5s0.125,1.875-1,3s-5.5,1.25-6.75,0S8.668,12.834,8.668,12    s0.583-1.25,1.25-1.917C8.835,9.5,7.419,7.708,8.043,7.083z"/> 	</g> 	 	<g id="_C3580F26-A85B-4C6A-97AD-D361FEECBB61serviceTask" transform="scale(0.7,0.7) translate(8,8)" display="none"> 		<polygon oryx:anchors="top left" id="_C3580F26-A85B-4C6A-97AD-D361FEECBB61frame20" style="opacity:1;fill:#ffffff" stroke="#000000" points="15.392,5.064 17.954,2.502 20.347,4.895 17.786,7.455     18.729,9.732 22.353,9.732 22.353,13.115 18.731,13.115 17.788,15.392 20.351,17.955 17.958,20.347 15.397,17.786 13.12,18.729     13.12,22.353 9.737,22.353 9.737,18.731 7.46,17.788 4.897,20.35 2.506,17.958 5.066,15.397 4.124,13.12 0.5,13.12 0.5,9.737     4.121,9.737 5.065,7.461 2.503,4.898 4.895,2.506 7.455,5.066 9.732,4.125 9.732,0.5 13.116,0.5 13.116,4.121 "/> 		<circle oryx:anchors="top left" id="_C3580F26-A85B-4C6A-97AD-D361FEECBB61frame21" style="opacity:1;fill:none" stroke="#000000" cx="11.427" cy="11.426" r="3.714"/> 		<polygon oryx:anchors="top left" id="_C3580F26-A85B-4C6A-97AD-D361FEECBB61frame22" style="opacity:1;fill:#ffffff" stroke="#000000" points="21.392,11.064 23.954,8.502 26.347,10.895 23.786,13.455     24.729,15.732 28.353,15.732 28.353,19.115 24.731,19.115 23.788,21.392 26.351,23.955 23.958,26.347 21.397,23.786 19.12,24.729     19.12,28.353 15.737,28.353 15.737,24.731 13.46,23.788 10.897,26.35 8.506,23.958 11.066,21.397 10.124,19.12 6.5,19.12     6.5,15.737 10.121,15.737 11.065,13.461 8.503,10.898 10.895,8.506 13.455,11.066 15.732,10.125 15.732,6.5 19.116,6.5     19.116,10.121 "/> 		<circle oryx:anchors="top left" id="_C3580F26-A85B-4C6A-97AD-D361FEECBB61frame23" style="opacity:1;fill:none;" stroke="#000000" cx="17.427" cy="17.426" r="3.714"/> 	</g> 	 	<g id="_C3580F26-A85B-4C6A-97AD-D361FEECBB61sendTask" display="none"> 		<path id="_C3580F26-A85B-4C6A-97AD-D361FEECBB61stframe24" oryx:anchors="left top" stroke="#FFFFFF" fill="black" stroke-width="1" d="M8,11 L8,21 L24,21 L24,11 L16,17z"/> 		<path id="_C3580F26-A85B-4C6A-97AD-D361FEECBB61stframe25" oryx:anchors="left top" stroke="#FFFFFF" fill="black" stroke-width="1" d="M7,10 L16,17 L25 10z"/> 	</g> 	 	<g id="_C3580F26-A85B-4C6A-97AD-D361FEECBB61receiveTask" display="none"> 		<path id="_C3580F26-A85B-4C6A-97AD-D361FEECBB61frame26" oryx:anchors="left top" stroke="#000000" fill="none" stroke-width="1" d="M8,11 L8,21 L24,21 L24,11z M8,11 L16,17 L24,11"/> 	</g> 	 	<g id="_C3580F26-A85B-4C6A-97AD-D361FEECBB61none" display="inherit"/>  	<g id="_C3580F26-A85B-4C6A-97AD-D361FEECBB61sequential" display="none">         <path oryx:anchors="bottom" fill="none" stroke="#000000" stroke-width="2" d="M46,76h10M46,72h10 M46,68h10" id="_C3580F26-A85B-4C6A-97AD-D361FEECBB61__C3580F26-A85B-4C6A-97AD-D361FEECBB61_20"/>     </g>   </g></g><g class="children" style="overflow:hidden"/><g class="edge"/></g><g class="controls"><g class="dockers"/><g class="magnets" transform="translate(195, 140)"><g pointer-events="all" display="none" transform="translate(-7, 12)"><circle cx="8" cy="8" r="4" stroke="none" fill="red" fill-opacity="0.3"/></g><g pointer-events="all" display="none" transform="translate(-7, 32)"><circle cx="8" cy="8" r="4" stroke="none" fill="red" fill-opacity="0.3"/></g><g pointer-events="all" display="none" transform="translate(-7, 52)"><circle cx="8" cy="8" r="4" stroke="none" fill="red" fill-opacity="0.3"/></g><g pointer-events="all" display="none" transform="translate(17, 71)"><circle cx="8" cy="8" r="4" stroke="none" fill="red" fill-opacity="0.3"/></g><g pointer-events="all" display="none" transform="translate(42, 71)"><circle cx="8" cy="8" r="4" stroke="none" fill="red" fill-opacity="0.3"/></g><g pointer-events="all" display="none" transform="translate(67, 71)"><circle cx="8" cy="8" r="4" stroke="none" fill="red" fill-opacity="0.3"/></g><g pointer-events="all" display="none" transform="translate(91, 12)"><circle cx="8" cy="8" r="4" stroke="none" fill="red" fill-opacity="0.3"/></g><g pointer-events="all" display="none" transform="translate(91, 32)"><circle cx="8" cy="8" r="4" stroke="none" fill="red" fill-opacity="0.3"/></g><g pointer-events="all" display="none" transform="translate(91, 52)"><circle cx="8" cy="8" r="4" stroke="none" fill="red" fill-opacity="0.3"/></g><g pointer-events="all" display="none" transform="translate(17, -7)"><circle cx="8" cy="8" r="4" stroke="none" fill="red" fill-opacity="0.3"/></g><g pointer-events="all" display="none" transform="translate(42, -7)"><circle cx="8" cy="8" r="4" stroke="none" fill="red" fill-opacity="0.3"/></g><g pointer-events="all" display="none" transform="translate(67, -7)"><circle cx="8" cy="8" r="4" stroke="none" fill="red" fill-opacity="0.3"/></g><g pointer-events="all" display="none" transform="translate(42, 32)"><circle cx="8" cy="8" r="4" stroke="none" fill="red" fill-opacity="0.3"/></g></g></g></g><g id="_9373F2E9-2E6F-4F25-AABE-B4E5F5D56135" bpmn2nodeid="_AEDC3637-60B9-4187-9818-9E7EFE637D41"><g class="stencils" transform="translate(360, 140)"><g class="me"><g pointer-events="fill" oryx:minimumSize="50 40" id="_9373F2E9-2E6F-4F25-AABE-B4E5F5D56135">   	<defs id="_9373F2E9-2E6F-4F25-AABE-B4E5F5D56135__9373F2E9-2E6F-4F25-AABE-B4E5F5D56135_17"> 		<radialGradient id="_9373F2E9-2E6F-4F25-AABE-B4E5F5D56135background" cx="10%" cy="10%" r="100%" fx="10%" fy="10%"> 			<stop offset="0%" stop-color="#ffffff" stop-opacity="1" id="_9373F2E9-2E6F-4F25-AABE-B4E5F5D56135__9373F2E9-2E6F-4F25-AABE-B4E5F5D56135_18"/> 			<stop id="_9373F2E9-2E6F-4F25-AABE-B4E5F5D56135fill_el" offset="100%" stop-color="#fafad2" stop-opacity="1"/> 		</radialGradient> 		<radialGradient id="_9373F2E9-2E6F-4F25-AABE-B4E5F5D56135borderbackground" cx="10%" cy="10%" r="100%" fx="10%" fy="10%"> 			<stop offset="0%" stop-color="#ffffff" stop-opacity="1" id="_9373F2E9-2E6F-4F25-AABE-B4E5F5D56135__9373F2E9-2E6F-4F25-AABE-B4E5F5D56135_19"/> 			<stop id="_9373F2E9-2E6F-4F25-AABE-B4E5F5D56135fill_border" offset="100%" stop-color="#000000" stop-opacity="1" stroke="#000000"/> 		</radialGradient> 	</defs> 	 	<rect id="_9373F2E9-2E6F-4F25-AABE-B4E5F5D56135text_frame" oryx:anchors="bottom top right left" x="1" y="1" width="94" height="79" rx="10" ry="10" stroke="none" stroke-width="0" fill="none"/> 	<rect id="_9373F2E9-2E6F-4F25-AABE-B4E5F5D56135bg_frame" oryx:resize="vertical horizontal" x="0" y="0" width="100" height="80" rx="10" ry="10" stroke="#000000" stroke-width="1" fill="url(#_9373F2E9-2E6F-4F25-AABE-B4E5F5D56135background) #ffffcc"/> 		<text font-size="12" id="_9373F2E9-2E6F-4F25-AABE-B4E5F5D56135text_name" x="50" y="40" oryx:align="middle center" oryx:fittoelem="text_frame" stroke="black" text-anchor="middle" stroke-width="0pt" letter-spacing="-0.01px" fill="#000000" transform="rotate(0 50 40)" visibility="inherit" oryx:fontSize="12"><tspan x="50" y="40" dy="5">SubformTask</tspan></text>     <g id="_9373F2E9-2E6F-4F25-AABE-B4E5F5D56135manualTask" transform="scale(0.7,0.7) translate(8,8)" display="none">     	<path oryx:anchors="top left" id="_9373F2E9-2E6F-4F25-AABE-B4E5F5D56135frame" style="opacity:1;fill:none;fill-opacity:1;stroke-width:1" d="M0.5,3.751l4.083-3.25c0,0,11.166,0.083,12.083,0.083s-2.417,2.917-1.5,2.917     s11.667,0,12.584,0c1.166,1.708-0.168,3.167-0.834,3.667s0.875,1.917-1,4.417c-0.75,0.25,0.75,1.875-1.333,3.333     c-1.167,0.583,0.583,1.542-1.25,2.833c-1.167,0-20.833,0.083-20.833,0.083l-2-1.333V3.751z" stroke="#000000"/> 		<path id="_9373F2E9-2E6F-4F25-AABE-B4E5F5D56135frame2" oryx:anchors="top left" style="opacity:1;fill:none;stroke-width:2" d="M 13.5 7 L 27 7" stroke="#000000"/> 		<path id="_9373F2E9-2E6F-4F25-AABE-B4E5F5D56135frame3" oryx:anchors="top left" style="opacity:1;fill:none;stroke-width:2" d="M 13.5 11 L 26 11" stroke="#000000"/> 		<path id="_9373F2E9-2E6F-4F25-AABE-B4E5F5D56135frame4" oryx:anchors="top left" style="opacity:1;fill:none;stroke-width:1.5" d="M 14 14.5 L 25 14.5" stroke="#000000"/> 		<path id="_9373F2E9-2E6F-4F25-AABE-B4E5F5D56135frame5" oryx:anchors="top left" style="opacity:1;fill:none;stroke-width:1.5" d="M 8.2 3.1 L 15 3.1" stroke="#000000"/> 	</g> 	 	<g id="_9373F2E9-2E6F-4F25-AABE-B4E5F5D56135businessRuleTask" transform="scale(0.7,0.7) translate(8,8)" display="none"> 		<rect id="_9373F2E9-2E6F-4F25-AABE-B4E5F5D56135frame6" oryx:anchors="top left" x="0" y="0" width="22" height="4" style="opacity:1;fill:#B3B1B3;fill-opacity:1;" stroke="#000000"/> 		<rect id="_9373F2E9-2E6F-4F25-AABE-B4E5F5D56135frame7" oryx:anchors="top left" x="0" y="4" style="opacity:1;fill:none;" width="22" height="12" stroke="#000000"/> 		<path id="_9373F2E9-2E6F-4F25-AABE-B4E5F5D56135frame8" oryx:anchors="top left" style="opacity:1;fill:none;" d="M 0 10 L 22 10" stroke="#000000"/> 		<path id="_9373F2E9-2E6F-4F25-AABE-B4E5F5D56135frame9" oryx:anchors="top left" style="opacity:1; fill:none;" d="M 7 4 L 7 16" stroke="#000000"/> 	</g> 	 	<g id="_9373F2E9-2E6F-4F25-AABE-B4E5F5D56135scriptTask" transform="scale(0.7,0.7) translate(8,8)" display="none"> 		<path oryx:anchors="top left" id="_9373F2E9-2E6F-4F25-AABE-B4E5F5D56135frame10" style="opacity:1;fill:none;" stroke="#000000" d="M6.402,0.5h14.5c0,0-5.833,2.833-5.833,5.583s4.417,6,4.417,9.167    s-4.167,5.083-4.167,5.083H0.235c0,0,5-2.667,5-5s-4.583-6.75-4.583-9.25S6.402,0.5,6.402,0.5z"/> 		<path oryx:anchors="top left" id="_9373F2E9-2E6F-4F25-AABE-B4E5F5D56135frame11" style="opacity:1;fill:none;stroke-width:1.5" d="M 3.5 4.5 L 13.5 4.5" stroke="#000000"/> 		<path oryx:anchors="top left" id="_9373F2E9-2E6F-4F25-AABE-B4E5F5D56135frame12" style="opacity:1;fill:none;stroke-width:1.5" d="M 3.8 8.5 L 13.8 8.5" stroke="#000000"/> 		<path oryx:anchors="top left" id="_9373F2E9-2E6F-4F25-AABE-B4E5F5D56135frame13" style="opacity:1;fill:none;stroke-width:1.5" d="M 6.3 12.5 L 16.3 12.5" stroke="#000000"/> 		<path oryx:anchors="top left" id="_9373F2E9-2E6F-4F25-AABE-B4E5F5D56135frame14" style="opacity:1;fill:none;stroke-width:1.5" d="M 6.5 16.5 L 16.5 16.5" stroke="#000000"/> 	</g> 	 	<g id="_9373F2E9-2E6F-4F25-AABE-B4E5F5D56135userTask" transform="scale(0.7,0.7) translate(8,8)" display="inherit"> 		<path id="_9373F2E9-2E6F-4F25-AABE-B4E5F5D56135frame15" oryx:anchors="top left" style="opacity:1;fill:#F4F6F7" stroke="#000000" d="M0.585,24.167h24.083v-7.833c0,0-2.333-3.917-7.083-5.167h-9.25    c-4.417,1.333-7.833,5.75-7.833,5.75L0.585,24.167z"/> 		<path id="_9373F2E9-2E6F-4F25-AABE-B4E5F5D56135frame16" oryx:anchors="top left" style="opacity:1;fill:none" d="M 6 20 L 6 24" stroke="#000000"/> 		<path id="_9373F2E9-2E6F-4F25-AABE-B4E5F5D56135frame17" oryx:anchors="top left" style="opacity:1;fill:none" d="M 20 20 L 20 24" stroke="#000000"/> 		<circle id="_9373F2E9-2E6F-4F25-AABE-B4E5F5D56135frame18" oryx:anchors="top left" fill="black" cx="13.002" cy="5.916" r="5.417" stroke="#000000"/> 		<path id="_9373F2E9-2E6F-4F25-AABE-B4E5F5D56135frame19" oryx:anchors="top left" style="opacity:1;fill:#F0EFF0;" stroke="#000000" d="M8.043,7.083c0,0,2.814-2.426,5.376-1.807s4.624-0.693,4.624-0.693    c0.25,1.688,0.042,3.75-1.458,5.584c0,0,1.083,0.75,1.083,1.5s0.125,1.875-1,3s-5.5,1.25-6.75,0S8.668,12.834,8.668,12    s0.583-1.25,1.25-1.917C8.835,9.5,7.419,7.708,8.043,7.083z"/> 	</g> 	 	<g id="_9373F2E9-2E6F-4F25-AABE-B4E5F5D56135serviceTask" transform="scale(0.7,0.7) translate(8,8)" display="none"> 		<polygon oryx:anchors="top left" id="_9373F2E9-2E6F-4F25-AABE-B4E5F5D56135frame20" style="opacity:1;fill:#ffffff" stroke="#000000" points="15.392,5.064 17.954,2.502 20.347,4.895 17.786,7.455     18.729,9.732 22.353,9.732 22.353,13.115 18.731,13.115 17.788,15.392 20.351,17.955 17.958,20.347 15.397,17.786 13.12,18.729     13.12,22.353 9.737,22.353 9.737,18.731 7.46,17.788 4.897,20.35 2.506,17.958 5.066,15.397 4.124,13.12 0.5,13.12 0.5,9.737     4.121,9.737 5.065,7.461 2.503,4.898 4.895,2.506 7.455,5.066 9.732,4.125 9.732,0.5 13.116,0.5 13.116,4.121 "/> 		<circle oryx:anchors="top left" id="_9373F2E9-2E6F-4F25-AABE-B4E5F5D56135frame21" style="opacity:1;fill:none" stroke="#000000" cx="11.427" cy="11.426" r="3.714"/> 		<polygon oryx:anchors="top left" id="_9373F2E9-2E6F-4F25-AABE-B4E5F5D56135frame22" style="opacity:1;fill:#ffffff" stroke="#000000" points="21.392,11.064 23.954,8.502 26.347,10.895 23.786,13.455     24.729,15.732 28.353,15.732 28.353,19.115 24.731,19.115 23.788,21.392 26.351,23.955 23.958,26.347 21.397,23.786 19.12,24.729     19.12,28.353 15.737,28.353 15.737,24.731 13.46,23.788 10.897,26.35 8.506,23.958 11.066,21.397 10.124,19.12 6.5,19.12     6.5,15.737 10.121,15.737 11.065,13.461 8.503,10.898 10.895,8.506 13.455,11.066 15.732,10.125 15.732,6.5 19.116,6.5     19.116,10.121 "/> 		<circle oryx:anchors="top left" id="_9373F2E9-2E6F-4F25-AABE-B4E5F5D56135frame23" style="opacity:1;fill:none;" stroke="#000000" cx="17.427" cy="17.426" r="3.714"/> 	</g> 	 	<g id="_9373F2E9-2E6F-4F25-AABE-B4E5F5D56135sendTask" display="none"> 		<path id="_9373F2E9-2E6F-4F25-AABE-B4E5F5D56135stframe24" oryx:anchors="left top" stroke="#FFFFFF" fill="black" stroke-width="1" d="M8,11 L8,21 L24,21 L24,11 L16,17z"/> 		<path id="_9373F2E9-2E6F-4F25-AABE-B4E5F5D56135stframe25" oryx:anchors="left top" stroke="#FFFFFF" fill="black" stroke-width="1" d="M7,10 L16,17 L25 10z"/> 	</g> 	 	<g id="_9373F2E9-2E6F-4F25-AABE-B4E5F5D56135receiveTask" display="none"> 		<path id="_9373F2E9-2E6F-4F25-AABE-B4E5F5D56135frame26" oryx:anchors="left top" stroke="#000000" fill="none" stroke-width="1" d="M8,11 L8,21 L24,21 L24,11z M8,11 L16,17 L24,11"/> 	</g> 	 	<g id="_9373F2E9-2E6F-4F25-AABE-B4E5F5D56135none" display="inherit"/>  	<g id="_9373F2E9-2E6F-4F25-AABE-B4E5F5D56135sequential" display="none">         <path oryx:anchors="bottom" fill="none" stroke="#000000" stroke-width="2" d="M46,76h10M46,72h10 M46,68h10" id="_9373F2E9-2E6F-4F25-AABE-B4E5F5D56135__9373F2E9-2E6F-4F25-AABE-B4E5F5D56135_20"/>     </g>   </g></g><g class="children" style="overflow:hidden"/><g class="edge"/></g><g class="controls"><g class="dockers"/><g class="magnets" transform="translate(360, 140)"><g pointer-events="all" display="none" transform="translate(-7, 12)"><circle cx="8" cy="8" r="4" stroke="none" fill="red" fill-opacity="0.3"/></g><g pointer-events="all" display="none" transform="translate(-7, 32)"><circle cx="8" cy="8" r="4" stroke="none" fill="red" fill-opacity="0.3"/></g><g pointer-events="all" display="none" transform="translate(-7, 52)"><circle cx="8" cy="8" r="4" stroke="none" fill="red" fill-opacity="0.3"/></g><g pointer-events="all" display="none" transform="translate(17, 71)"><circle cx="8" cy="8" r="4" stroke="none" fill="red" fill-opacity="0.3"/></g><g pointer-events="all" display="none" transform="translate(42, 71)"><circle cx="8" cy="8" r="4" stroke="none" fill="red" fill-opacity="0.3"/></g><g pointer-events="all" display="none" transform="translate(67, 71)"><circle cx="8" cy="8" r="4" stroke="none" fill="red" fill-opacity="0.3"/></g><g pointer-events="all" display="none" transform="translate(91, 12)"><circle cx="8" cy="8" r="4" stroke="none" fill="red" fill-opacity="0.3"/></g><g pointer-events="all" display="none" transform="translate(91, 32)"><circle cx="8" cy="8" r="4" stroke="none" fill="red" fill-opacity="0.3"/></g><g pointer-events="all" display="none" transform="translate(91, 52)"><circle cx="8" cy="8" r="4" stroke="none" fill="red" fill-opacity="0.3"/></g><g pointer-events="all" display="none" transform="translate(17, -7)"><circle cx="8" cy="8" r="4" stroke="none" fill="red" fill-opacity="0.3"/></g><g pointer-events="all" display="none" transform="translate(42, -7)"><circle cx="8" cy="8" r="4" stroke="none" fill="red" fill-opacity="0.3"/></g><g pointer-events="all" display="none" transform="translate(67, -7)"><circle cx="8" cy="8" r="4" stroke="none" fill="red" fill-opacity="0.3"/></g><g pointer-events="all" display="none" transform="translate(42, 32)"><circle cx="8" cy="8" r="4" stroke="none" fill="red" fill-opacity="0.3"/></g></g></g></g><g id="_0E1CDD1A-F334-43E0-B5F9-A6A4EDE0DF4D" bpmn2nodeid="_423B4F72-1E3A-4AB1-94F6-0CAD53EFA209"><g class="stencils" transform="translate(540, 140)"><g class="me"><g pointer-events="fill" oryx:minimumSize="50 40" id="_0E1CDD1A-F334-43E0-B5F9-A6A4EDE0DF4D">   	<defs id="_0E1CDD1A-F334-43E0-B5F9-A6A4EDE0DF4D__0E1CDD1A-F334-43E0-B5F9-A6A4EDE0DF4D_17"> 		<radialGradient id="_0E1CDD1A-F334-43E0-B5F9-A6A4EDE0DF4Dbackground" cx="10%" cy="10%" r="100%" fx="10%" fy="10%"> 			<stop offset="0%" stop-color="#ffffff" stop-opacity="1" id="_0E1CDD1A-F334-43E0-B5F9-A6A4EDE0DF4D__0E1CDD1A-F334-43E0-B5F9-A6A4EDE0DF4D_18"/> 			<stop id="_0E1CDD1A-F334-43E0-B5F9-A6A4EDE0DF4Dfill_el" offset="100%" stop-color="#fafad2" stop-opacity="1"/> 		</radialGradient> 		<radialGradient id="_0E1CDD1A-F334-43E0-B5F9-A6A4EDE0DF4Dborderbackground" cx="10%" cy="10%" r="100%" fx="10%" fy="10%"> 			<stop offset="0%" stop-color="#ffffff" stop-opacity="1" id="_0E1CDD1A-F334-43E0-B5F9-A6A4EDE0DF4D__0E1CDD1A-F334-43E0-B5F9-A6A4EDE0DF4D_19"/> 			<stop id="_0E1CDD1A-F334-43E0-B5F9-A6A4EDE0DF4Dfill_border" offset="100%" stop-color="#000000" stop-opacity="1" stroke="#000000"/> 		</radialGradient> 	</defs> 	 	<rect id="_0E1CDD1A-F334-43E0-B5F9-A6A4EDE0DF4Dtext_frame" oryx:anchors="bottom top right left" x="1" y="1" width="94" height="79" rx="10" ry="10" stroke="none" stroke-width="0" fill="none"/> 	<rect id="_0E1CDD1A-F334-43E0-B5F9-A6A4EDE0DF4Dbg_frame" oryx:resize="vertical horizontal" x="0" y="0" width="100" height="80" rx="10" ry="10" stroke="#000000" stroke-width="1" fill="url(#_0E1CDD1A-F334-43E0-B5F9-A6A4EDE0DF4Dbackground) #ffffcc"/> 		<text font-size="12" id="_0E1CDD1A-F334-43E0-B5F9-A6A4EDE0DF4Dtext_name" x="50" y="40" oryx:align="middle center" oryx:fittoelem="text_frame" stroke="black" text-anchor="middle" stroke-width="0pt" letter-spacing="-0.01px" fill="#000000" transform="rotate(0 50 40)" visibility="inherit" oryx:fontSize="12"><tspan x="50" y="40" dy="5" id="ext-gen679">TextareaTask</tspan></text>     <g id="_0E1CDD1A-F334-43E0-B5F9-A6A4EDE0DF4DmanualTask" transform="scale(0.7,0.7) translate(8,8)" display="none">     	<path oryx:anchors="top left" id="_0E1CDD1A-F334-43E0-B5F9-A6A4EDE0DF4Dframe" style="opacity:1;fill:none;fill-opacity:1;stroke-width:1" d="M0.5,3.751l4.083-3.25c0,0,11.166,0.083,12.083,0.083s-2.417,2.917-1.5,2.917     s11.667,0,12.584,0c1.166,1.708-0.168,3.167-0.834,3.667s0.875,1.917-1,4.417c-0.75,0.25,0.75,1.875-1.333,3.333     c-1.167,0.583,0.583,1.542-1.25,2.833c-1.167,0-20.833,0.083-20.833,0.083l-2-1.333V3.751z" stroke="#000000"/> 		<path id="_0E1CDD1A-F334-43E0-B5F9-A6A4EDE0DF4Dframe2" oryx:anchors="top left" style="opacity:1;fill:none;stroke-width:2" d="M 13.5 7 L 27 7" stroke="#000000"/> 		<path id="_0E1CDD1A-F334-43E0-B5F9-A6A4EDE0DF4Dframe3" oryx:anchors="top left" style="opacity:1;fill:none;stroke-width:2" d="M 13.5 11 L 26 11" stroke="#000000"/> 		<path id="_0E1CDD1A-F334-43E0-B5F9-A6A4EDE0DF4Dframe4" oryx:anchors="top left" style="opacity:1;fill:none;stroke-width:1.5" d="M 14 14.5 L 25 14.5" stroke="#000000"/> 		<path id="_0E1CDD1A-F334-43E0-B5F9-A6A4EDE0DF4Dframe5" oryx:anchors="top left" style="opacity:1;fill:none;stroke-width:1.5" d="M 8.2 3.1 L 15 3.1" stroke="#000000"/> 	</g> 	 	<g id="_0E1CDD1A-F334-43E0-B5F9-A6A4EDE0DF4DbusinessRuleTask" transform="scale(0.7,0.7) translate(8,8)" display="none"> 		<rect id="_0E1CDD1A-F334-43E0-B5F9-A6A4EDE0DF4Dframe6" oryx:anchors="top left" x="0" y="0" width="22" height="4" style="opacity:1;fill:#B3B1B3;fill-opacity:1;" stroke="#000000"/> 		<rect id="_0E1CDD1A-F334-43E0-B5F9-A6A4EDE0DF4Dframe7" oryx:anchors="top left" x="0" y="4" style="opacity:1;fill:none;" width="22" height="12" stroke="#000000"/> 		<path id="_0E1CDD1A-F334-43E0-B5F9-A6A4EDE0DF4Dframe8" oryx:anchors="top left" style="opacity:1;fill:none;" d="M 0 10 L 22 10" stroke="#000000"/> 		<path id="_0E1CDD1A-F334-43E0-B5F9-A6A4EDE0DF4Dframe9" oryx:anchors="top left" style="opacity:1; fill:none;" d="M 7 4 L 7 16" stroke="#000000"/> 	</g> 	 	<g id="_0E1CDD1A-F334-43E0-B5F9-A6A4EDE0DF4DscriptTask" transform="scale(0.7,0.7) translate(8,8)" display="none"> 		<path oryx:anchors="top left" id="_0E1CDD1A-F334-43E0-B5F9-A6A4EDE0DF4Dframe10" style="opacity:1;fill:none;" stroke="#000000" d="M6.402,0.5h14.5c0,0-5.833,2.833-5.833,5.583s4.417,6,4.417,9.167    s-4.167,5.083-4.167,5.083H0.235c0,0,5-2.667,5-5s-4.583-6.75-4.583-9.25S6.402,0.5,6.402,0.5z"/> 		<path oryx:anchors="top left" id="_0E1CDD1A-F334-43E0-B5F9-A6A4EDE0DF4Dframe11" style="opacity:1;fill:none;stroke-width:1.5" d="M 3.5 4.5 L 13.5 4.5" stroke="#000000"/> 		<path oryx:anchors="top left" id="_0E1CDD1A-F334-43E0-B5F9-A6A4EDE0DF4Dframe12" style="opacity:1;fill:none;stroke-width:1.5" d="M 3.8 8.5 L 13.8 8.5" stroke="#000000"/> 		<path oryx:anchors="top left" id="_0E1CDD1A-F334-43E0-B5F9-A6A4EDE0DF4Dframe13" style="opacity:1;fill:none;stroke-width:1.5" d="M 6.3 12.5 L 16.3 12.5" stroke="#000000"/> 		<path oryx:anchors="top left" id="_0E1CDD1A-F334-43E0-B5F9-A6A4EDE0DF4Dframe14" style="opacity:1;fill:none;stroke-width:1.5" d="M 6.5 16.5 L 16.5 16.5" stroke="#000000"/> 	</g> 	 	<g id="_0E1CDD1A-F334-43E0-B5F9-A6A4EDE0DF4DuserTask" transform="scale(0.7,0.7) translate(8,8)" display="inherit"> 		<path id="_0E1CDD1A-F334-43E0-B5F9-A6A4EDE0DF4Dframe15" oryx:anchors="top left" style="opacity:1;fill:#F4F6F7" stroke="#000000" d="M0.585,24.167h24.083v-7.833c0,0-2.333-3.917-7.083-5.167h-9.25    c-4.417,1.333-7.833,5.75-7.833,5.75L0.585,24.167z"/> 		<path id="_0E1CDD1A-F334-43E0-B5F9-A6A4EDE0DF4Dframe16" oryx:anchors="top left" style="opacity:1;fill:none" d="M 6 20 L 6 24" stroke="#000000"/> 		<path id="_0E1CDD1A-F334-43E0-B5F9-A6A4EDE0DF4Dframe17" oryx:anchors="top left" style="opacity:1;fill:none" d="M 20 20 L 20 24" stroke="#000000"/> 		<circle id="_0E1CDD1A-F334-43E0-B5F9-A6A4EDE0DF4Dframe18" oryx:anchors="top left" fill="black" cx="13.002" cy="5.916" r="5.417" stroke="#000000"/> 		<path id="_0E1CDD1A-F334-43E0-B5F9-A6A4EDE0DF4Dframe19" oryx:anchors="top left" style="opacity:1;fill:#F0EFF0;" stroke="#000000" d="M8.043,7.083c0,0,2.814-2.426,5.376-1.807s4.624-0.693,4.624-0.693    c0.25,1.688,0.042,3.75-1.458,5.584c0,0,1.083,0.75,1.083,1.5s0.125,1.875-1,3s-5.5,1.25-6.75,0S8.668,12.834,8.668,12    s0.583-1.25,1.25-1.917C8.835,9.5,7.419,7.708,8.043,7.083z"/> 	</g> 	 	<g id="_0E1CDD1A-F334-43E0-B5F9-A6A4EDE0DF4DserviceTask" transform="scale(0.7,0.7) translate(8,8)" display="none"> 		<polygon oryx:anchors="top left" id="_0E1CDD1A-F334-43E0-B5F9-A6A4EDE0DF4Dframe20" style="opacity:1;fill:#ffffff" stroke="#000000" points="15.392,5.064 17.954,2.502 20.347,4.895 17.786,7.455     18.729,9.732 22.353,9.732 22.353,13.115 18.731,13.115 17.788,15.392 20.351,17.955 17.958,20.347 15.397,17.786 13.12,18.729     13.12,22.353 9.737,22.353 9.737,18.731 7.46,17.788 4.897,20.35 2.506,17.958 5.066,15.397 4.124,13.12 0.5,13.12 0.5,9.737     4.121,9.737 5.065,7.461 2.503,4.898 4.895,2.506 7.455,5.066 9.732,4.125 9.732,0.5 13.116,0.5 13.116,4.121 "/> 		<circle oryx:anchors="top left" id="_0E1CDD1A-F334-43E0-B5F9-A6A4EDE0DF4Dframe21" style="opacity:1;fill:none" stroke="#000000" cx="11.427" cy="11.426" r="3.714"/> 		<polygon oryx:anchors="top left" id="_0E1CDD1A-F334-43E0-B5F9-A6A4EDE0DF4Dframe22" style="opacity:1;fill:#ffffff" stroke="#000000" points="21.392,11.064 23.954,8.502 26.347,10.895 23.786,13.455     24.729,15.732 28.353,15.732 28.353,19.115 24.731,19.115 23.788,21.392 26.351,23.955 23.958,26.347 21.397,23.786 19.12,24.729     19.12,28.353 15.737,28.353 15.737,24.731 13.46,23.788 10.897,26.35 8.506,23.958 11.066,21.397 10.124,19.12 6.5,19.12     6.5,15.737 10.121,15.737 11.065,13.461 8.503,10.898 10.895,8.506 13.455,11.066 15.732,10.125 15.732,6.5 19.116,6.5     19.116,10.121 "/> 		<circle oryx:anchors="top left" id="_0E1CDD1A-F334-43E0-B5F9-A6A4EDE0DF4Dframe23" style="opacity:1;fill:none;" stroke="#000000" cx="17.427" cy="17.426" r="3.714"/> 	</g> 	 	<g id="_0E1CDD1A-F334-43E0-B5F9-A6A4EDE0DF4DsendTask" display="none"> 		<path id="_0E1CDD1A-F334-43E0-B5F9-A6A4EDE0DF4Dstframe24" oryx:anchors="left top" stroke="#FFFFFF" fill="black" stroke-width="1" d="M8,11 L8,21 L24,21 L24,11 L16,17z"/> 		<path id="_0E1CDD1A-F334-43E0-B5F9-A6A4EDE0DF4Dstframe25" oryx:anchors="left top" stroke="#FFFFFF" fill="black" stroke-width="1" d="M7,10 L16,17 L25 10z"/> 	</g> 	 	<g id="_0E1CDD1A-F334-43E0-B5F9-A6A4EDE0DF4DreceiveTask" display="none"> 		<path id="_0E1CDD1A-F334-43E0-B5F9-A6A4EDE0DF4Dframe26" oryx:anchors="left top" stroke="#000000" fill="none" stroke-width="1" d="M8,11 L8,21 L24,21 L24,11z M8,11 L16,17 L24,11"/> 	</g> 	 	<g id="_0E1CDD1A-F334-43E0-B5F9-A6A4EDE0DF4Dnone" display="inherit"/>  	<g id="_0E1CDD1A-F334-43E0-B5F9-A6A4EDE0DF4Dsequential" display="none">         <path oryx:anchors="bottom" fill="none" stroke="#000000" stroke-width="2" d="M46,76h10M46,72h10 M46,68h10" id="_0E1CDD1A-F334-43E0-B5F9-A6A4EDE0DF4D__0E1CDD1A-F334-43E0-B5F9-A6A4EDE0DF4D_20"/>     </g>   </g></g><g class="children" style="overflow:hidden"/><g class="edge"/></g><g class="controls"><g class="dockers"/><g class="magnets" transform="translate(540, 140)"><g pointer-events="all" display="none" transform="translate(-7, 12)"><circle cx="8" cy="8" r="4" stroke="none" fill="red" fill-opacity="0.3"/></g><g pointer-events="all" display="none" transform="translate(-7, 32)"><circle cx="8" cy="8" r="4" stroke="none" fill="red" fill-opacity="0.3"/></g><g pointer-events="all" display="none" transform="translate(-7, 52)"><circle cx="8" cy="8" r="4" stroke="none" fill="red" fill-opacity="0.3"/></g><g pointer-events="all" display="none" transform="translate(17, 71)"><circle cx="8" cy="8" r="4" stroke="none" fill="red" fill-opacity="0.3"/></g><g pointer-events="all" display="none" transform="translate(42, 71)"><circle cx="8" cy="8" r="4" stroke="none" fill="red" fill-opacity="0.3"/></g><g pointer-events="all" display="none" transform="translate(67, 71)"><circle cx="8" cy="8" r="4" stroke="none" fill="red" fill-opacity="0.3"/></g><g pointer-events="all" display="none" transform="translate(91, 12)"><circle cx="8" cy="8" r="4" stroke="none" fill="red" fill-opacity="0.3"/></g><g pointer-events="all" display="none" transform="translate(91, 32)"><circle cx="8" cy="8" r="4" stroke="none" fill="red" fill-opacity="0.3"/></g><g pointer-events="all" display="none" transform="translate(91, 52)"><circle cx="8" cy="8" r="4" stroke="none" fill="red" fill-opacity="0.3"/></g><g pointer-events="all" display="none" transform="translate(17, -7)"><circle cx="8" cy="8" r="4" stroke="none" fill="red" fill-opacity="0.3"/></g><g pointer-events="all" display="none" transform="translate(42, -7)"><circle cx="8" cy="8" r="4" stroke="none" fill="red" fill-opacity="0.3"/></g><g pointer-events="all" display="none" transform="translate(67, -7)"><circle cx="8" cy="8" r="4" stroke="none" fill="red" fill-opacity="0.3"/></g><g pointer-events="all" display="none" transform="translate(42, 32)"><circle cx="8" cy="8" r="4" stroke="none" fill="red" fill-opacity="0.3"/></g></g></g></g><g id="_13D12C10-35D2-4146-A870-D73A18828251" bpmn2nodeid="_6B751EEC-CBEC-404F-93F2-40E7EA5C1DFA"><g class="stencils" transform="translate(705, 166)"><g class="me"><g pointer-events="fill" id="_13D12C10-35D2-4146-A870-D73A18828251">      <defs id="_13D12C10-35D2-4146-A870-D73A18828251__13D12C10-35D2-4146-A870-D73A18828251_5"> 		<radialGradient id="_13D12C10-35D2-4146-A870-D73A18828251background" cx="10%" cy="10%" r="100%" fx="10%" fy="10%"> 			<stop offset="0%" stop-color="#ffffff" stop-opacity="1" id="_13D12C10-35D2-4146-A870-D73A18828251__13D12C10-35D2-4146-A870-D73A18828251_6"/> 			<stop id="_13D12C10-35D2-4146-A870-D73A18828251fill_el" offset="100%" stop-color="#ff6347" stop-opacity="1"/> 		</radialGradient> 	</defs> 	     <circle id="_13D12C10-35D2-4146-A870-D73A18828251bg_frame" cx="14" cy="14" r="14" stroke="#000000" fill="url(#_13D12C10-35D2-4146-A870-D73A18828251background) white" stroke-width="3"/> 	<text font-size="11" id="_13D12C10-35D2-4146-A870-D73A18828251text_name" x="14" y="30" oryx:align="top center" stroke="black" stroke-width="0pt" letter-spacing="-0.01px" fill="#000000" text-anchor="middle" transform="rotate(0 14 30)" visibility="inherit" oryx:fontSize="11"/>   </g></g><g class="children" style="overflow:hidden"/><g class="edge"/></g><g class="controls"><g class="dockers"/><g class="magnets" transform="translate(705, 166)"><g pointer-events="all" display="none" transform="translate(6, 6)"><circle cx="8" cy="8" r="4" stroke="none" fill="red" fill-opacity="0.3"/></g></g></g></g></g><g class="edge"><g id="_1B27C164-94AB-49B5-9C90-2C99BF80BD23" bpmn2nodeid="_7BEC9CA8-D124-48EE-8558-4B1D9B8C4EB0"><g class="stencils"><g class="me"><g pointer-events="painted" bpmn2nodeid="_E869E751-C289-4966-B4CB-12D359BAFE34"><path id="_1B27C164-94AB-49B5-9C90-2C99BF80BD23_1" d="M150.609375 180L194.15625 180 " stroke="#000000" fill="none" stroke-width="2" stroke-linecap="round" stroke-linejoin="round" marker-start="url(#_1B27C164-94AB-49B5-9C90-2C99BF80BD23start)" marker-end="url(#_1B27C164-94AB-49B5-9C90-2C99BF80BD23end)"/></g><text id="_1B27C164-94AB-49B5-9C90-2C99BF80BD23text_name" font-size="12" x="164.609375" y="166" oryx:edgePosition="startTop" stroke-width="0pt" letter-spacing="-0.01px" fill="#000000" text-anchor="start" transform="rotate(360 150.609375 180)" visibility="inherit" oryx:fontSize="12"/></g><g class="children" style="overflow:hidden"/><g class="edge"/></g><g class="controls"><g class="dockers"/><g class="magnets"/></g></g><g id="_6B1E30B0-B06E-4EDA-ADDD-4CEEBBECB292" bpmn2nodeid="_1F230378-6784-43E7-B92E-AA43F8366D09"><g class="stencils"><g class="me"><g pointer-events="painted" bpmn2nodeid="_8B3FC2E4-2BA8-4383-9AAA-2E0016C80AD7"><path id="_6B1E30B0-B06E-4EDA-ADDD-4CEEBBECB292_1" d="M460.21875 180L539.78125 180 " stroke="#000000" fill="none" stroke-width="2" stroke-linecap="round" stroke-linejoin="round" marker-start="url(#_6B1E30B0-B06E-4EDA-ADDD-4CEEBBECB292start)" marker-end="url(#_6B1E30B0-B06E-4EDA-ADDD-4CEEBBECB292end)"/></g><text id="_6B1E30B0-B06E-4EDA-ADDD-4CEEBBECB292text_name" font-size="12" x="474.21875" y="166" oryx:edgePosition="startTop" stroke-width="0pt" letter-spacing="-0.01px" fill="#000000" text-anchor="start" transform="rotate(360 460.21875 180)" visibility="inherit" oryx:fontSize="12"/></g><g class="children" style="overflow:hidden"/><g class="edge"/></g><g class="controls"><g class="dockers"/><g class="magnets"/></g></g><g id="_B5DED41D-8957-4153-AA85-EC2F84B5BD4B" bpmn2nodeid="_559331B8-D222-4A5E-AF24-314BF3644C15"><g class="stencils"><g class="me"><g pointer-events="painted" bpmn2nodeid="_FCDA8480-FA38-4437-9D29-5A43B3E8C182"><path id="_B5DED41D-8957-4153-AA85-EC2F84B5BD4B_1" d="M295.62890625 180L359.37109375 180 " stroke="#000000" fill="none" stroke-width="2" stroke-linecap="round" stroke-linejoin="round" marker-start="url(#_B5DED41D-8957-4153-AA85-EC2F84B5BD4Bstart)" marker-end="url(#_B5DED41D-8957-4153-AA85-EC2F84B5BD4Bend)"/></g><text id="_B5DED41D-8957-4153-AA85-EC2F84B5BD4Btext_name" font-size="12" x="309.62890625" y="166" oryx:edgePosition="startTop" stroke-width="0pt" letter-spacing="-0.01px" fill="#000000" text-anchor="start" transform="rotate(360 295.62890625 180)" visibility="inherit" oryx:fontSize="12"/></g><g class="children" style="overflow:hidden"/><g class="edge"/></g><g class="controls"><g class="dockers"/><g class="magnets"/></g></g><g id="_0FF3FE59-84BF-442B-9BA3-E708D95046BF" bpmn2nodeid="_3FB4AD35-C099-4C64-B875-075DF2A86DE2"><g class="stencils"><g class="me"><g pointer-events="painted" bpmn2nodeid="_3FB4AD35-C099-4C64-B875-075DF2A86DE2"><path id="_0FF3FE59-84BF-442B-9BA3-E708D95046BF_1" d="M640.3828125 180L704.8984375 180 " stroke="#000000" fill="none" stroke-width="2" stroke-linecap="round" stroke-linejoin="round" marker-start="url(#_0FF3FE59-84BF-442B-9BA3-E708D95046BFstart)" marker-end="url(#_0FF3FE59-84BF-442B-9BA3-E708D95046BFend)"/></g><text id="_0FF3FE59-84BF-442B-9BA3-E708D95046BFtext_name" font-size="12" x="654.3828125" y="166" oryx:edgePosition="startTop" stroke-width="0pt" letter-spacing="-0.01px" fill="#000000" text-anchor="start" transform="rotate(360 640.3828125 180)" visibility="inherit" oryx:fontSize="12"/></g><g class="children" style="overflow:hidden"/><g class="edge"/></g><g class="controls"><g class="dockers"/><g class="magnets"/></g></g></g><text id="_2A75B942-7422-48C5-BEF5-0BDC141E4826" style="stroke-width:1;fill:rgb(177,194,214);font-family:arial;font-weight:bold" font-size="12" onclick="ORYX.Plugins.CanvasTitle.openTextualAnalysis()" onmouseover="ORYX.Plugins.CanvasTitle.addToolTip('_2A75B942-7422-48C5-BEF5-0BDC141E4826')" transform="translate(10, 20)">myprocess v.1.0 (myproject.myprocess)</text></g></g></svg>